<?xml version="1.0" standalone="no"?>
<!DOCTYPE svg PUBLIC "-//W3C//DTD SVG 20010904//EN"
 "http://www.w3.org/TR/2001/REC-SVG-20010904/DTD/svg10.dtd">
<svg version="1.0" xmlns="http://www.w3.org/2000/svg"
 width="235.000000pt" height="235.000000pt" viewBox="0 0 235.000000 235.000000"
 preserveAspectRatio="xMidYMid meet">
<metadata>
Created by potrace 1.14, written by Peter Selinger 2001-2017
</metadata>
<g transform="translate(0.000000,235.000000) scale(0.100000,-0.100000)"
fill="#000000" stroke="none">
<path d="M1646 2189 c-13 -4 -41 -26 -64 -50 -85 -93 -112 -124 -112 -131 0
-5 -7 -8 -15 -8 -8 0 -15 -5 -15 -11 0 -5 -13 -24 -30 -42 -16 -18 -30 -36
-30 -40 0 -5 -4 -5 -10 -2 -5 3 -10 2 -10 -4 0 -9 -57 -75 -133 -153 -15 -16
-27 -33 -27 -39 0 -6 -4 -7 -10 -4 -5 3 -10 1 -10 -4 0 -6 -19 -31 -42 -55
-24 -24 -70 -75 -103 -112 -33 -36 -77 -85 -99 -108 -21 -22 -56 -63 -77 -89
-22 -27 -39 -45 -39 -40 0 4 -10 -7 -21 -24 -12 -18 -25 -31 -30 -28 -4 3 -12
-7 -16 -22 l-7 -28 -6 35 c-3 19 -2 41 3 48 5 6 6 12 1 12 -5 0 -9 16 -9 35 0
19 4 35 8 35 4 0 3 8 -2 18 -6 11 -6 24 1 37 8 13 8 20 0 23 -7 2 -7 13 -2 33
5 16 6 29 2 29 -4 0 -7 14 -8 30 -1 17 2 30 7 30 4 0 4 12 1 28 -9 34 -9 54 1
70 5 7 3 12 -3 12 -7 0 -8 6 -2 18 5 9 8 28 5 42 -9 54 -9 76 0 88 6 8 5 12
-2 12 -7 0 -9 5 -6 11 11 17 13 59 3 59 -5 0 -4 9 2 20 8 14 8 20 0 20 -8 0
-8 6 0 20 6 12 7 20 1 20 -10 0 -9 19 2 38 5 7 3 12 -3 12 -8 0 -7 6 1 21 6
12 7 24 3 28 -5 3 -9 29 -9 56 l0 50 -72 3 -73 3 0 -1051 0 -1051 73 3 c69 3
72 4 73 28 0 14 3 30 7 36 3 6 4 14 0 18 -9 9 -9 66 0 66 4 0 3 8 -2 18 -5 10
-6 24 -2 30 4 7 5 33 1 57 -4 26 -3 48 4 55 7 7 6 10 -2 10 -9 0 -10 5 -2 19
6 12 6 22 1 25 -10 7 -9 25 2 43 5 8 3 13 -3 13 -6 0 -8 5 -5 11 9 14 12 99 3
99 -8 0 -5 21 5 38 5 7 3 12 -3 12 -7 0 -8 6 -2 15 4 9 5 40 2 70 -4 32 -2 59
4 65 7 7 6 10 -2 10 -10 0 -10 5 -1 22 8 16 9 23 1 26 -7 2 -8 11 -2 27 5 14
5 27 1 30 -10 6 -9 24 2 43 5 7 3 12 -3 12 -7 0 -8 6 -2 17 5 9 6 28 2 43 -4
15 -4 33 0 40 5 7 6 20 3 29 -6 18 18 -8 187 -199 30 -34 74 -83 98 -107 23
-25 42 -47 42 -49 0 -3 18 -23 40 -45 22 -22 40 -43 40 -45 0 -3 15 -20 33
-38 17 -18 51 -55 74 -82 23 -27 57 -65 75 -85 18 -20 56 -62 83 -94 28 -31
66 -74 85 -95 68 -74 155 -172 161 -182 3 -5 51 -7 107 -6 l102 3 -26 30 c-14
17 -47 54 -75 83 -27 29 -49 58 -49 63 0 5 -7 9 -15 9 -8 0 -15 5 -15 10 0 6
-11 21 -25 34 -13 13 -22 26 -19 29 3 3 -4 8 -15 12 -12 3 -21 11 -21 16 0 5
-15 25 -32 43 -18 18 -67 70 -108 116 -41 45 -87 94 -101 109 l-26 26 1 496
c1 426 3 498 16 511 8 8 49 53 90 99 41 45 91 100 110 120 19 21 55 61 80 89
25 28 72 80 105 114 33 35 61 68 62 74 3 12 -125 21 -161 11z m-417 -732 c0
-34 0 -66 1 -72 1 -5 2 -13 1 -17 -4 -24 -1 -470 4 -478 3 -5 2 -11 -3 -14 -5
-3 -7 -20 -4 -38 l4 -33 -31 32 c-17 18 -31 37 -31 44 0 7 -3 9 -6 6 -4 -3
-16 6 -28 20 -21 27 -86 99 -163 181 -24 25 -43 49 -43 53 0 4 -8 12 -17 18
-17 9 -17 10 0 28 21 22 86 93 152 168 28 31 71 79 98 107 26 28 47 55 47 60
0 5 4 7 10 3 5 -3 9 -34 9 -68z"/>
</g>
</svg>
